<?xml version="1.0" encoding="UTF-8" standalone="no"?> <svg xmlns="http://www.w3.org/2000/svg" version="1.0" width="111.000000pt" height="111.000000pt" viewBox="0 0 111.000000 111.000000" preserveAspectRatio="xMidYMid meet"><g transform="translate(0.000000,111.000000) scale(0.100000,-0.100000)" fill="#000000" stroke="none"><path d="M0 555 l0 -555 125 0 c69 0 125 3 125 6 0 3 -11 20 -24 37 -35 47 -61 103 -87 187 -21 65 -24 94 -23 225 0 162 13 233 60 334 53 115 149 221 255 284 l64 37 -248 0 -247 0 0 -555z"></path><path d="M703 1030 c-66 -14 -150 -60 -195 -108 -36 -39 -108 -173 -108 -201 0 -8 110 -11 355 -11 l355 0 -6 33 c-29 164 -97 246 -236 283 -58 15 -101 16 -165 4z"></path><path d="M376 525 c-7 -60 4 -169 24 -260 15 -66 73 -186 111 -230 l31 -35 268 0 c148 0 275 3 284 6 14 5 16 40 16 290 l0 284 -364 2 -364 3 -6 -60z"></path></g></svg> 